<?xml version="1.0" encoding="UTF-8"?>
<svg version="1.1" xmlns="http://www.w3.org/2000/svg" width="256" height="256">
<path d="M0 0 C8.77247052 6.33481057 14.36482677 13.58354369 16.375 24.375 C16.92301429 31.00823595 15.79364104 36.21844513 13.41015625 42.37890625 C13.10168762 43.21104141 12.79321899 44.04317657 12.47540283 44.90052795 C11.47657262 47.58491929 10.45740701 50.26105423 9.4375 52.9375 C8.7391823 54.80143546 8.04216822 56.66585982 7.34643555 58.53076172 C5.97917987 62.18877506 4.60407149 65.84365541 3.22070312 69.49560547 C1.73031833 73.43020243 0.25686599 77.37043558 -1.203125 81.31640625 C-7.16425574 97.40397106 -13.40578089 113.38588971 -19.625 129.375 C-24.37539071 129.49915051 -26.75621151 129.25179144 -30.625 126.375 C-32.32996537 124.74753306 -34.00397032 123.08608689 -35.625 121.375 C-36.81405402 119.98073129 -36.81405402 119.98073129 -40.1875 119.9375 C-44.84800402 119.96260146 -47.3131273 121.91401798 -50.765625 124.8671875 C-54.07022605 127.54696902 -55.86988503 128.41474289 -60.1875 128.1875 C-63.625 127.375 -63.625 127.375 -65.625 126.25 C-68.6318988 120.61206475 -63.81993764 109.15984758 -62.44140625 103.26367188 C-62.22355469 102.29623047 -62.00570312 101.32878906 -61.78125 100.33203125 C-61.58337891 99.47585205 -61.38550781 98.61967285 -61.18164062 97.73754883 C-59.58782201 88.10962612 -59.48317121 78.41949264 -59.44921875 68.68359375 C-59.42603584 66.08397614 -59.40191915 63.48436672 -59.37695312 60.88476562 C-59.34064479 56.84089971 -59.31075736 52.79719161 -59.29907227 48.75317383 C-59.28695545 44.81303584 -59.24331623 40.87350665 -59.19921875 36.93359375 C-59.20112717 35.73745956 -59.20303558 34.54132538 -59.20500183 33.3089447 C-59.04744304 22.40120999 -56.4984068 12.31808297 -48.625 4.375 C-34.50614351 -6.96130813 -15.83231645 -9.72633775 0 0 Z M-38.3125 23.6875 C-41.12150349 27.29907591 -40.92803649 30.98097084 -40.625 35.375 C-39.59622608 38.28580119 -39.59622608 38.28580119 -37.625 40.375 C-35.03377257 41.26158466 -35.03377257 41.26158466 -32.625 41.375 C-29.51766328 38.36476756 -28.29561662 36.1333064 -28.125 31.875 C-28.28002111 28.55865562 -28.66884965 27.29826311 -30.375 24.3125 C-33.14518555 21.92706244 -35.24854107 21.30442083 -38.3125 23.6875 Z M-11.8125 23.9375 C-14.22074288 27.17617146 -14.55568165 29.35453554 -14.625 33.375 C-13.30946467 36.6951606 -12.1444066 38.8555934 -9.625 41.375 C-7.10070505 41.60500198 -7.10070505 41.60500198 -4.625 40.375 C-2.23282224 36.38803707 -1.59206106 34.34669871 -1.75 29.6875 C-2.60380735 26.45522931 -3.18013437 24.63876448 -5.625 22.375 C-9.53054879 21.98750787 -9.53054879 21.98750787 -11.8125 23.9375 Z " fill="#FDFDFD" transform="translate(118.625,54.625)"/>
<path d="M0 0 C10.12901369 -0.29501982 17.64337366 -0.33525791 26.3125 5.0625 C34.70309829 14.23361906 33.59919409 25.96502869 33.625 37.625 C33.64144117 40.2575211 33.66365953 42.88969671 33.69662476 45.52206421 C33.71597914 47.14927284 33.72562022 48.77663878 33.72354126 50.40396118 C33.77882132 56.34532817 34.18147806 62.34216025 37.625 67.375 C40.96181668 69.6580851 44.0421748 70.20843496 48 71 C48 75.95 48 80.9 48 86 C45.89625 86.556875 45.89625 86.556875 43.75 87.125 C40.254825 88.30104945 39.06385437 88.9297602 36.5 91.75 C33.68565164 97.84775478 33.85903593 104.30405587 33.82421875 110.8984375 C33.80102405 112.6119915 33.77690685 114.32553321 33.75195312 116.0390625 C33.71689877 118.70711585 33.68750144 121.37471331 33.67407227 124.04296875 C33.54750313 145.13522922 33.54750313 145.13522922 26.3125 152.875 C17.70667036 158.3957209 10.11610379 158.2946438 0 158 C0 153.05 0 148.1 0 143 C2.76692708 142.54427083 5.53385417 142.08854167 8.30078125 141.6328125 C11.20059827 141.11914546 11.20059827 141.11914546 14 139 C15.19156703 135.42529891 15.1920154 132.12587152 15.24609375 128.40234375 C15.27906694 126.86262527 15.31227793 125.32291186 15.34570312 123.78320312 C15.39281195 121.36991297 15.43718582 118.95663796 15.47680664 116.54321289 C15.88440575 92.85609117 15.88440575 92.85609117 21 85 C22.92746953 83.23027734 24.95473761 81.63620991 27 80 C27 79.34 27 78.68 27 78 C26.0925 77.319375 25.185 76.63875 24.25 75.9375 C18.27524562 71.14922167 16.88012317 64.28836134 16 57 C15.8904841 54.27227424 15.81696707 51.56385 15.7890625 48.8359375 C15.76101921 47.28644731 15.73235496 45.73696826 15.703125 44.1875 C15.66178041 41.77376323 15.62483977 39.36024058 15.59863281 36.94628906 C15.57098923 34.59658484 15.52515852 32.24778945 15.4765625 29.8984375 C15.47330963 29.18062103 15.47005676 28.46280457 15.46670532 27.72323608 C15.35973895 23.34710868 14.75925831 20.44652519 12 17 C8.02298635 15.73821655 4.16957677 15.49317575 0 15 C0 10.05 0 5.1 0 0 Z " fill="#FDFCFB" transform="translate(200,49)"/>
<path d="M0 0 C0 4.95 0 9.9 0 15 C-1.753125 15.2475 -3.50625 15.495 -5.3125 15.75 C-9.50215255 16.31517588 -9.50215255 16.31517588 -12.79296875 18.765625 C-15.37906778 23.55283745 -15.15795976 28.72527935 -15.2109375 34.046875 C-15.23901566 35.6302185 -15.26768019 37.21355169 -15.296875 38.796875 C-15.33798798 41.26952718 -15.3749143 43.74198888 -15.40136719 46.21484375 C-15.65914061 68.43669032 -15.65914061 68.43669032 -23 76 C-25.25 77.8125 -25.25 77.8125 -27 79 C-26.54109375 79.31710938 -26.0821875 79.63421875 -25.609375 79.9609375 C-20.11308569 84.14088862 -17.63641372 88.30430718 -16 95 C-15.29170427 101.19550441 -15.38953999 107.46014289 -15.375 113.6875 C-15.35856589 116.18766033 -15.33637638 118.68745615 -15.30337524 121.18745422 C-15.28399825 122.73227046 -15.27438237 124.27725297 -15.27645874 125.82218933 C-15.22287047 131.27396245 -15.04091336 136.95908664 -11 141 C-8.34280163 141.68177998 -8.34280163 141.68177998 -5.375 142.125 C-3.60125 142.41375 -1.8275 142.7025 0 143 C0 147.95 0 152.9 0 158 C-10.54501623 158.3678494 -19.17997819 157.94100097 -27.52734375 150.98828125 C-31.86509098 145.1317472 -32.44039673 138.80587584 -32.44140625 131.78515625 C-32.45461411 130.9299791 -32.46782196 130.07480194 -32.48143005 129.19371033 C-32.52199782 126.48327333 -32.54389239 123.77316986 -32.5625 121.0625 C-32.58643859 118.35550481 -32.61480154 115.64881649 -32.65428162 112.94200134 C-32.67826763 111.26580988 -32.69342588 109.58945833 -32.69789124 107.9131012 C-32.78917632 98.01029534 -32.78917632 98.01029534 -37.1875 89.5625 C-40.54506148 87.55805826 -40.54506148 87.55805826 -47 86 C-47 81.05 -47 76.1 -47 71 C-45.576875 70.7525 -44.15375 70.505 -42.6875 70.25 C-39.10207087 69.42489892 -39.10207087 69.42489892 -36.0625 67.4375 C-33.23470063 60.95019556 -32.71730725 54.15380583 -32.7265625 47.16015625 C-32.70627826 45.5032484 -32.68542757 43.8463474 -32.6640625 42.18945312 C-32.64151088 39.62469621 -32.62499478 37.0602128 -32.61914062 34.49536133 C-32.53531023 12.62191592 -32.53531023 12.62191592 -26.12060547 6.0847168 C-18.26814335 -0.56763658 -9.79396165 -0.22259004 0 0 Z " fill="#FCFDFB" transform="translate(55,49)"/>
<path d="M0 0 C5.28 0 10.56 0 16 0 C15.22503071 4.64981576 14.37561474 8.03352057 12.70703125 12.33203125 C12.01383789 14.13414063 12.01383789 14.13414063 11.30664062 15.97265625 C11.06276611 16.59930176 10.8188916 17.22594727 10.56762695 17.87158203 C9.28981939 21.15595648 8.03039912 24.44737473 6.76953125 27.73828125 C6.52252472 28.38173492 6.27551819 29.0251886 6.02102661 29.68814087 C4.26777936 34.26642258 2.5937802 38.86420736 1 43.5 C-1.87188383 51.79172369 -5.00341028 59.9807944 -8.12890625 68.1796875 C-12.79865116 80.4359036 -17.4004546 92.71729343 -22 105 C-28.62342386 122.68327252 -35.27896611 140.35358502 -42 158 C-47.28 158 -52.56 158 -58 158 C-57.28272148 153.69632889 -56.65311682 150.68194357 -55.12890625 146.7578125 C-54.72881348 145.7167334 -54.3287207 144.6756543 -53.91650391 143.60302734 C-53.46968262 142.45527832 -53.02286133 141.3075293 -52.5625 140.125 C-51.55838805 137.51670194 -50.55878462 134.90667873 -49.55859375 132.296875 C-49.28422485 131.58256317 -49.00985596 130.86825134 -48.72717285 130.1322937 C-44.8020722 119.90167583 -40.96903666 109.63627605 -37.125 99.375 C-36.33822078 97.27620269 -35.55143691 95.17740712 -34.76464844 93.07861328 C-30.00419494 80.37520249 -25.26533052 67.66395399 -20.55026245 54.94363403 C-13.7538108 36.60902662 -6.87598723 18.30489613 0 0 Z " fill="#FCFDFB" transform="translate(157,49)"/>
<path d="M0 0 C5.28 0 10.56 0 16 0 C14.56284414 7.55102332 12.10202107 14.4121706 9.3125 21.5625 C8.56629361 23.49898413 7.82266395 25.43644641 7.07910156 27.37394714 C6.54886656 28.75524432 6.01792615 30.13627089 5.48632812 31.51704407 C2.62382688 38.95698237 -0.17387989 46.42087761 -2.96740723 53.88693237 C-4.20036459 57.18204617 -5.43494422 60.47655139 -6.66940308 63.77110291 C-7.33284101 65.54179155 -7.99618932 67.31251379 -8.65945435 69.08326721 C-11.64732981 77.06014597 -14.63783785 85.03603682 -17.62890625 93.01171875 C-17.86948257 93.6532168 -18.1100589 94.29471485 -18.35792542 94.95565224 C-19.56958961 98.18653767 -20.78127928 101.41741354 -21.99298096 104.64828491 C-24.30667851 110.81754662 -26.62011994 116.98690438 -28.93359375 123.15625 C-29.72582902 125.26888061 -30.51806523 127.38151086 -31.31030273 129.49414062 C-31.86790283 130.98107422 -32.42550293 132.46800781 -33 134 C-38.61 134 -44.22 134 -50 134 C-45.05765981 119.66251391 -39.85175663 105.43922712 -34.5 91.25 C-33.70941359 89.14900924 -32.91905293 87.04793352 -32.12890625 84.94677734 C-30.52690804 80.68717331 -28.92389304 76.42795388 -27.3203125 72.16894531 C-25.15471973 66.41462385 -22.99750487 60.65719867 -20.84375 54.8984375 C-13.98520857 36.56369967 -7.07747497 18.25155898 0 0 Z " fill="#FCFCFB" transform="translate(184,73)"/>
<path d="M0 0 C1.24546405 2.49092811 0.7767578 3.41080733 0 6 C-2.31 5.67 -4.62 5.34 -7 5 C-6.67 4.34 -6.34 3.68 -6 3 C-4.35 3 -2.7 3 -1 3 C-0.67 2.01 -0.34 1.02 0 0 Z " fill="#E2E9F5" transform="translate(115,92)"/>
</svg>
